<svg width="50" height="54" viewBox="0 0 50 54" fill="none" xmlns="http://www.w3.org/2000/svg">
<path d="M3.92659 36.8327C3.51689 36.1327 2.79181 35.3651 2.59313 34.6697C2.48862 34.3039 2.05873 33.8062 2.03664 33.4307C1.95419 32.0291 2.03664 30.5931 2.03664 29.1889C2.03664 27.5398 2.19988 26.4034 3.08662 25.01C3.74142 23.981 4.85162 22.7343 5.81654 22.0911" stroke="#E0E0E0" stroke-width="3" stroke-linecap="round" stroke-linejoin="round"/>
<path d="M8.0844 22.0909C4.93485 20.8161 2.44273 14.7149 6.27845 12.4942C7.03565 12.0558 7.5795 11.2733 8.42039 10.9822C9.03236 10.7704 10.1325 10.3027 10.6358 9.91127C11.2014 9.4714 12.325 9.51397 12.9983 9.41778C14.1987 9.24629 15.3427 9.05029 16.5892 9.05029" stroke="#E0E0E0" stroke-width="3" stroke-linecap="round" stroke-linejoin="round"/>
<path d="M16.5892 11.3183C16.5892 9.50913 16.9489 7.88294 17.8072 6.28896C18.3201 5.33641 18.7612 4.00083 19.8021 3.42254C20.6935 2.92732 21.3795 2.52144 22.3536 2.16257C23.137 1.87394 24.2581 2.05758 25.0835 2.05758C26.6341 2.05758 29.0183 1.75787 30.3439 2.62456C30.889 2.98097 31.9441 4.3923 32.0763 4.98699C32.2406 5.72625 33.0565 6.55886 33.4098 7.26543C33.5938 7.6335 33.716 8.19001 33.9768 8.4834C34.4488 9.01445 34.1119 9.94147 34.5437 10.3733" stroke="#E0E0E0" stroke-width="3" stroke-linecap="round" stroke-linejoin="round"/>
<path d="M30.9529 11.5073C33.2857 11.0301 36.2551 10.3573 38.5127 11.4233C39.9362 12.0955 41.5612 13.3323 42.1456 14.7202C42.7697 16.2025 43.2375 17.8336 43.2375 19.4451C43.2375 20.4005 43.6908 23.7544 42.8596 24.17" stroke="#E0E0E0" stroke-width="3" stroke-linecap="round" stroke-linejoin="round"/>
<path d="M41.5365 25.115C43.7016 25.115 46.1756 25.6409 47.3533 27.7609C48.1876 29.2626 48.2995 31.9194 47.3953 33.3888C46.9629 34.0914 46.4474 34.7132 45.6944 35.0897C44.8815 35.4962 44.0383 35.5253 43.2374 35.8457C41.5979 36.5015 39.3564 35.5097 37.7566 35.5097" stroke="#E0E0E0" stroke-width="3" stroke-linecap="round" stroke-linejoin="round"/>
<path d="M19.5601 30.6687V53.6687" stroke="#E0E0E0" stroke-width="3"/>
<line x1="24.5601" y1="25.6687" x2="24.5601" y2="53.6687" stroke="#E0E0E0" stroke-width="3"/>
<path d="M29.5601 33.6687V53.6686" stroke="#E0E0E0" stroke-width="3"/>
<path d="M3.17065 36.8326C4.07555 37.5396 4.59019 38.0826 5.72208 38.3341C6.46572 38.4993 7.41587 38.3446 8.17902 38.3446C9.06262 38.3446 10.0515 37.6761 10.6884 37.0636C11.4297 36.3509 11.3714 35.4768 11.6754 34.5647" stroke="#E0E0E0" stroke-width="3" stroke-linecap="round" stroke-linejoin="round"/>
</svg>
