<svg width="104" height="66" viewBox="0 0 104 66" fill="none" xmlns="http://www.w3.org/2000/svg">
<rect width="100.56" height="63.6687" transform="translate(2 2)" fill="#171A21"/>
<path d="M3.92659 36.8327C3.51689 36.1327 2.79181 35.3651 2.59313 34.6697C2.48862 34.3039 2.05873 33.8062 2.03664 33.4307C1.95419 32.0291 2.03664 30.5931 2.03664 29.1889C2.03664 27.5398 2.19988 26.4034 3.08662 25.01C3.74142 23.981 4.85162 22.7343 5.81654 22.0911" stroke="#E0E0E0" stroke-width="3" stroke-linecap="round" stroke-linejoin="round"/>
<path d="M8.0844 22.0909C4.93485 20.8161 2.44273 14.7149 6.27845 12.4942C7.03565 12.0558 7.5795 11.2733 8.42039 10.9822C9.03236 10.7704 10.1325 10.3027 10.6358 9.91127C11.2014 9.4714 12.325 9.51397 12.9983 9.41778C14.1987 9.24629 15.3427 9.05029 16.5892 9.05029" stroke="#E0E0E0" stroke-width="3" stroke-linecap="round" stroke-linejoin="round"/>
<path d="M16.5892 11.3183C16.5892 9.50913 16.9489 7.88294 17.8072 6.28896C18.3201 5.33641 18.7612 4.00083 19.8021 3.42254C20.6935 2.92732 21.3795 2.52144 22.3536 2.16257C23.137 1.87394 24.2581 2.05758 25.0835 2.05758C26.6341 2.05758 29.0183 1.75787 30.3439 2.62456C30.889 2.98097 31.9441 4.3923 32.0763 4.98699C32.2406 5.72625 33.0565 6.55886 33.4098 7.26543C33.5938 7.6335 33.716 8.19001 33.9768 8.4834C34.4488 9.01445 34.1119 9.94147 34.5437 10.3733" stroke="#E0E0E0" stroke-width="3" stroke-linecap="round" stroke-linejoin="round"/>
<path d="M30.9529 11.5073C33.2857 11.0301 36.2551 10.3573 38.5127 11.4233C39.9362 12.0955 41.5612 13.3323 42.1456 14.7202C42.7697 16.2025 43.2375 17.8336 43.2375 19.4451C43.2375 20.4005 43.6908 23.7544 42.8596 24.17" stroke="#E0E0E0" stroke-width="3" stroke-linecap="round" stroke-linejoin="round"/>
<path d="M41.5365 25.115C43.7016 25.115 46.1756 25.6409 47.3533 27.7609C48.1876 29.2626 48.2995 31.9194 47.3953 33.3888C46.9629 34.0914 46.4474 34.7132 45.6944 35.0897C44.8815 35.4962 44.0383 35.5253 43.2374 35.8457C41.5979 36.5015 39.3564 35.5097 37.7566 35.5097" stroke="#E0E0E0" stroke-width="3" stroke-linecap="round" stroke-linejoin="round"/>
<path d="M19.5601 30.6687V53.6687" stroke="#E0E0E0" stroke-width="3"/>
<line x1="24.5601" y1="25.6687" x2="24.5601" y2="53.6687" stroke="#E0E0E0" stroke-width="3"/>
<path d="M29.5601 33.6687V53.6686" stroke="#E0E0E0" stroke-width="3"/>
<path d="M3.17065 36.8326C4.07555 37.5396 4.59019 38.0826 5.72208 38.3341C6.46572 38.4993 7.41587 38.3446 8.17902 38.3446C9.06262 38.3446 10.0515 37.6761 10.6884 37.0636C11.4297 36.3509 11.3714 35.4768 11.6754 34.5647" stroke="#E0E0E0" stroke-width="3" stroke-linecap="round" stroke-linejoin="round"/>
<path d="M17.1685 10.4287C17.1685 10.9996 17.1685 11.5704 17.1685 12.1413" stroke="#E0E0E0" stroke-linecap="round" stroke-linejoin="round"/>
<path d="M58.3821 24.2207V24.6687H55.6381V24.2207H56.7441V20.7487C56.7441 20.366 56.6274 20.0627 56.3941 19.8387C56.1701 19.6147 55.8667 19.5027 55.4841 19.5027C55.1667 19.5027 54.8214 19.568 54.4481 19.6987C54.0841 19.82 53.7294 19.9927 53.3841 20.2167C53.4307 20.422 53.4541 20.6134 53.4541 20.7907V24.2207H54.4761V24.6687H51.7461V24.2207H52.8521V20.7487C52.8521 20.366 52.7401 20.0627 52.5161 19.8387C52.2921 19.6147 51.9887 19.5027 51.6061 19.5027C51.3541 19.5027 51.0507 19.5634 50.6961 19.6847C50.3507 19.7967 49.9821 19.96 49.5901 20.1747V24.2207H50.7101V24.6687H47.8261V24.2207H48.9881V19.6147H47.8401V19.1667H49.5901V19.7407C49.9634 19.5167 50.3367 19.344 50.7101 19.2227C51.0927 19.092 51.4334 19.0267 51.7321 19.0267C52.0867 19.0267 52.3901 19.1014 52.6421 19.2507C52.9034 19.4 53.1041 19.6054 53.2441 19.8667C53.6921 19.5867 54.0981 19.3767 54.4621 19.2367C54.8261 19.0967 55.2134 19.0267 55.6241 19.0267C56.1374 19.0267 56.5527 19.1807 56.8701 19.4887C57.1874 19.7967 57.3461 20.2214 57.3461 20.7627V24.2207H58.3821ZM60.1192 26.0267H60.6932C60.9732 26.0267 61.1832 26.008 61.3232 25.9707C61.4632 25.9334 61.5799 25.8587 61.6732 25.7467C61.7665 25.6347 61.8645 25.4527 61.9672 25.2007L62.3592 24.2767H62.0512L59.9232 19.6147H58.8312V19.1667H61.4912V19.6147H60.5532L62.4852 23.9547L64.2772 19.6147H63.1852V19.1667H65.7892V19.6147H64.8932L62.5272 25.2147C62.3779 25.5787 62.2379 25.8494 62.1072 26.0267C61.9859 26.204 61.8179 26.3347 61.6032 26.4187C61.3979 26.5027 61.1085 26.5447 60.7352 26.5447H60.1192V26.0267ZM70.5377 20.4407C71.3497 20.562 71.9377 20.7954 72.3017 21.1407C72.675 21.4767 72.8617 21.9714 72.8617 22.6247C72.8617 23.278 72.6377 23.81 72.1897 24.2207C71.751 24.622 71.135 24.8227 70.3417 24.8227C69.7163 24.8227 69.175 24.7107 68.7177 24.4867C68.2603 24.2627 67.9337 23.9547 67.7377 23.5627V24.6687H67.1777V22.0227H67.7237C67.7423 22.7507 67.9617 23.32 68.3817 23.7307C68.8017 24.132 69.4503 24.3327 70.3277 24.3327C70.9343 24.3327 71.4057 24.188 71.7417 23.8987C72.087 23.6 72.2597 23.1987 72.2597 22.6947C72.2597 22.1627 72.1243 21.7754 71.8537 21.5327C71.5923 21.29 71.1163 21.1174 70.4257 21.0147L69.5577 20.8887C68.7643 20.7767 68.1623 20.548 67.7517 20.2027C67.3503 19.8574 67.1497 19.3627 67.1497 18.7187C67.1497 18.0747 67.369 17.5707 67.8077 17.2067C68.2463 16.8334 68.853 16.6467 69.6277 16.6467C70.169 16.6467 70.645 16.7447 71.0557 16.9407C71.4663 17.1274 71.7697 17.3887 71.9657 17.7247V16.7867H72.5117V18.9427H71.9797C71.961 18.42 71.7557 17.986 71.3637 17.6407C70.9717 17.2954 70.4023 17.1227 69.6557 17.1227C69.0583 17.1227 68.5917 17.2627 68.2557 17.5427C67.9197 17.8227 67.7517 18.196 67.7517 18.6627C67.7517 19.1854 67.9103 19.568 68.2277 19.8107C68.545 20.0534 69.0257 20.226 69.6697 20.3287L70.5377 20.4407ZM76.7352 24.6687C76.2032 24.6687 75.7925 24.552 75.5032 24.3187C75.2139 24.076 75.0692 23.6794 75.0692 23.1287V19.6147H74.0752V19.1667H75.0692V17.2767L75.6852 17.0527V19.1667H77.2392V19.6147H75.6852V23.0867C75.6852 23.5067 75.7692 23.8007 75.9372 23.9687C76.1145 24.1367 76.4085 24.2207 76.8192 24.2207H77.4632V24.6687H76.7352ZM83.9004 22.0647H79.0004C79.0471 22.746 79.2851 23.2967 79.7144 23.7167C80.1531 24.1367 80.6944 24.3467 81.3384 24.3467C81.7584 24.3467 82.1691 24.258 82.5704 24.0807C82.9811 23.894 83.3124 23.656 83.5644 23.3667L83.7744 23.7867C83.4571 24.1134 83.0884 24.37 82.6684 24.5567C82.2484 24.734 81.8051 24.8227 81.3384 24.8227C80.8064 24.8227 80.3118 24.706 79.8544 24.4727C79.4064 24.23 79.0471 23.8894 78.7764 23.4507C78.5058 23.0027 78.3704 22.4894 78.3704 21.9107C78.3704 21.3134 78.5011 20.7954 78.7624 20.3567C79.0238 19.918 79.3691 19.5867 79.7984 19.3627C80.2371 19.1294 80.7084 19.0127 81.2124 19.0127C82.0058 19.0127 82.6498 19.2647 83.1444 19.7687C83.6484 20.2727 83.9004 20.9867 83.9004 21.9107V22.0647ZM83.3124 21.6447C83.3124 20.954 83.1071 20.4174 82.6964 20.0347C82.2951 19.652 81.8004 19.4607 81.2124 19.4607C80.6151 19.4607 80.1064 19.6614 79.6864 20.0627C79.2758 20.4547 79.0471 20.982 79.0004 21.6447H83.3124ZM90.6126 24.2207V24.6687H89.2686L89.1846 24.1227C88.4566 24.5894 87.7706 24.8227 87.1266 24.8227C86.5666 24.8227 86.1139 24.6687 85.7686 24.3607C85.4326 24.0527 85.2646 23.6607 85.2646 23.1847C85.2646 22.606 85.4513 22.186 85.8246 21.9247C86.1979 21.6634 86.6833 21.5327 87.2806 21.5327C87.7099 21.5327 88.3353 21.6074 89.1566 21.7567V21.0147C89.1566 20.5107 89.0213 20.1327 88.7506 19.8807C88.4799 19.6194 88.1113 19.4887 87.6446 19.4887C87.3553 19.4887 87.0426 19.5307 86.7066 19.6147C86.3706 19.6987 86.0486 19.8107 85.7406 19.9507L85.5586 19.5307C85.8946 19.3627 86.2446 19.2367 86.6086 19.1527C86.9819 19.0687 87.3226 19.0267 87.6306 19.0267C88.3586 19.0267 88.8953 19.2087 89.2406 19.5727C89.5859 19.9274 89.7586 20.3707 89.7586 20.9027V24.2207H90.6126ZM85.8386 23.1707C85.8386 23.516 85.9553 23.8054 86.1886 24.0387C86.4313 24.272 86.7626 24.3887 87.1826 24.3887C87.4906 24.3887 87.7939 24.3374 88.0926 24.2347C88.4006 24.1227 88.7553 23.9454 89.1566 23.7027V22.1487C88.5033 21.9994 87.8873 21.9247 87.3086 21.9247C86.8793 21.9247 86.5246 22.0274 86.2446 22.2327C85.9739 22.4287 85.8386 22.7414 85.8386 23.1707ZM101.938 24.2207V24.6687H99.1943V24.2207H100.3V20.7487C100.3 20.366 100.184 20.0627 99.9503 19.8387C99.7263 19.6147 99.423 19.5027 99.0403 19.5027C98.723 19.5027 98.3776 19.568 98.0043 19.6987C97.6403 19.82 97.2856 19.9927 96.9403 20.2167C96.987 20.422 97.0103 20.6134 97.0103 20.7907V24.2207H98.0323V24.6687H95.3023V24.2207H96.4083V20.7487C96.4083 20.366 96.2963 20.0627 96.0723 19.8387C95.8483 19.6147 95.545 19.5027 95.1623 19.5027C94.9103 19.5027 94.607 19.5634 94.2523 19.6847C93.907 19.7967 93.5383 19.96 93.1463 20.1747V24.2207H94.2663V24.6687H91.3823V24.2207H92.5443V19.6147H91.3963V19.1667H93.1463V19.7407C93.5196 19.5167 93.893 19.344 94.2663 19.2227C94.649 19.092 94.9896 19.0267 95.2883 19.0267C95.643 19.0267 95.9463 19.1014 96.1983 19.2507C96.4596 19.4 96.6603 19.6054 96.8003 19.8667C97.2483 19.5867 97.6543 19.3767 98.0183 19.2367C98.3823 19.0967 98.7696 19.0267 99.1803 19.0267C99.6936 19.0267 100.109 19.1807 100.426 19.4887C100.744 19.7967 100.902 20.2214 100.902 20.7627V24.2207H101.938Z" fill="#E0E0E0"/>
<path d="M78.4517 45.6111C78.3442 45.8357 78.2075 46.1042 78.0415 46.4167C77.8853 46.7195 77.7046 47.0369 77.4995 47.3689C77.2944 47.7009 77.0649 48.033 76.811 48.365C76.5571 48.6873 76.2788 48.9802 75.9761 49.2439C75.6831 49.4978 75.3657 49.7029 75.0239 49.8591C74.6919 50.0251 74.3354 50.1082 73.9546 50.1082C73.3687 50.1082 72.8657 49.9275 72.4458 49.5662C72.0259 49.2048 71.6694 48.7312 71.3765 48.1453C71.0835 47.5593 70.8442 46.8953 70.6587 46.1531C70.4829 45.4011 70.3462 44.6394 70.2485 43.8679C70.1509 43.0867 70.0825 42.3298 70.0435 41.5974C70.0142 40.865 69.9995 40.2156 69.9995 39.6492C69.9995 38.8289 70.0239 37.9792 70.0728 37.1003C70.1313 36.2214 70.2192 35.3621 70.3364 34.5222C70.4536 33.6824 70.6001 32.8865 70.7759 32.1345C70.9614 31.3826 71.1763 30.7234 71.4204 30.157C71.6743 29.5906 71.9624 29.1414 72.2847 28.8093C72.6069 28.4773 72.9731 28.3113 73.3833 28.3113C73.7056 28.3113 73.9937 28.3894 74.2476 28.5457C74.5112 28.6921 74.731 28.9363 74.9067 29.2781C75.0825 29.6199 75.2192 30.0642 75.3169 30.6111C75.4146 31.158 75.4634 31.8269 75.4634 32.6179C75.4634 33.5945 75.3608 34.6052 75.1558 35.6501C74.9507 36.6853 74.6724 37.7302 74.3208 38.7849C73.9692 39.8396 73.5542 40.8943 73.0757 41.949C72.5972 42.9939 72.0845 44.0144 71.5376 45.0105C71.7817 46.2507 72.1089 47.2273 72.519 47.9402C72.9292 48.6433 73.4224 48.9949 73.9985 48.9949C74.3892 48.9949 74.7651 48.8435 75.1265 48.5408C75.4878 48.2283 75.8198 47.8621 76.1226 47.4421C76.4253 47.0222 76.689 46.5974 76.9136 46.1677C77.1479 45.7283 77.3286 45.3767 77.4556 45.113C77.5044 45.0154 77.5728 44.9421 77.6606 44.8933C77.7485 44.8347 77.8462 44.8054 77.9536 44.8054C78.1196 44.8054 78.2515 44.864 78.3491 44.9812C78.4565 45.0984 78.5103 45.2302 78.5103 45.3767C78.5103 45.4353 78.4907 45.5134 78.4517 45.6111ZM71.1128 39.7224C71.1128 40.3474 71.1274 40.948 71.1567 41.5242C71.186 42.1003 71.2251 42.6521 71.2739 43.1794C71.6841 42.3884 72.0747 41.5486 72.4458 40.6599C72.8169 39.7615 73.144 38.8582 73.4272 37.95C73.7104 37.032 73.9351 36.1238 74.1011 35.2253C74.2769 34.3171 74.3647 33.4529 74.3647 32.6326C74.3647 31.4802 74.272 30.655 74.0864 30.157C73.9009 29.6589 73.6519 29.4099 73.3394 29.4099C73.1343 29.4099 72.9341 29.5515 72.7388 29.8347C72.5532 30.1179 72.3774 30.5037 72.2114 30.9919C72.0454 31.4802 71.894 32.0564 71.7573 32.7205C71.6206 33.3845 71.5034 34.0974 71.4058 34.8591C71.3179 35.6208 71.2446 36.4167 71.186 37.2468C71.1372 38.0769 71.1128 38.9021 71.1128 39.7224ZM80.0079 38.1697C80.0079 38.5408 79.8761 38.8582 79.6124 39.1218C79.3585 39.3757 79.046 39.5027 78.6749 39.5027C78.3038 39.5027 77.9864 39.3757 77.7228 39.1218C77.4688 38.8582 77.3419 38.5408 77.3419 38.1697C77.3419 37.9841 77.3761 37.8132 77.4444 37.657C77.5128 37.491 77.6056 37.3494 77.7228 37.2322C77.8497 37.1052 77.9913 37.0076 78.1476 36.9392C78.3136 36.8708 78.4894 36.8367 78.6749 36.8367C78.8604 36.8367 79.0313 36.8708 79.1876 36.9392C79.3536 37.0076 79.4952 37.1052 79.6124 37.2322C79.7394 37.3494 79.837 37.491 79.9054 37.657C79.9737 37.8132 80.0079 37.9841 80.0079 38.1697ZM77.6349 46.7537C77.6349 45.3474 77.7228 43.946 77.8985 42.5496C77.9181 42.4128 77.9767 42.2957 78.0743 42.198C78.1817 42.0906 78.3185 42.0369 78.4845 42.0369C78.631 42.0369 78.753 42.0955 78.8507 42.2126C78.9483 42.3201 78.9972 42.447 78.9972 42.5935C78.9972 42.6521 78.9825 42.8279 78.9532 43.1208C78.9337 43.4138 78.9044 43.7654 78.8653 44.1755C78.836 44.5759 78.8067 45.0056 78.7774 45.4646C78.7579 45.9138 78.7481 46.3289 78.7481 46.7097C78.7481 47.2273 78.797 47.6472 78.8946 47.9695C79.0021 48.282 79.1339 48.5261 79.2901 48.7019C79.4562 48.8777 79.6271 48.9949 79.8028 49.0535C79.9884 49.1121 80.1642 49.1414 80.3302 49.1414C80.6036 49.1414 80.8868 49.0437 81.1798 48.8484C81.4728 48.6531 81.7706 48.3796 82.0733 48.0281C82.3858 47.6765 82.6983 47.2566 83.0108 46.7683C83.3233 46.2703 83.631 45.7185 83.9337 45.113C83.9825 45.0154 84.0509 44.9421 84.1388 44.8933C84.2267 44.8347 84.3243 44.8054 84.4317 44.8054C84.588 44.8054 84.7149 44.864 84.8126 44.9812C84.92 45.0984 84.9737 45.2253 84.9737 45.3621C84.9737 45.4597 84.9542 45.5427 84.9151 45.6111C84.7979 45.8357 84.6515 46.1091 84.4757 46.4314C84.2999 46.7537 84.0997 47.0857 83.8751 47.4275C83.6505 47.7693 83.4015 48.1111 83.128 48.4529C82.8644 48.7849 82.5812 49.0876 82.2784 49.3611C81.9757 49.6248 81.6583 49.8396 81.3263 50.0056C80.9942 50.1716 80.6573 50.2546 80.3155 50.2546C79.8761 50.2546 79.4903 50.1619 79.1583 49.9763C78.8263 49.7908 78.5431 49.5417 78.3087 49.2292C78.0841 48.9167 77.9132 48.5505 77.796 48.1306C77.6886 47.7009 77.6349 47.2419 77.6349 46.7537ZM79.1876 38.1697C79.1876 38.033 79.1339 37.9158 79.0265 37.8181C78.9288 37.7107 78.8116 37.657 78.6749 37.657C78.5382 37.657 78.421 37.7107 78.3233 37.8181C78.2257 37.9158 78.1769 38.033 78.1769 38.1697C78.1769 38.3064 78.2257 38.4236 78.3233 38.5212C78.421 38.6189 78.5382 38.6677 78.6749 38.6677C78.8116 38.6677 78.9288 38.6189 79.0265 38.5212C79.1339 38.4236 79.1876 38.3064 79.1876 38.1697ZM85.695 44.2488C85.6364 44.405 85.5632 44.5808 85.4753 44.7761C85.3972 44.9714 85.3044 45.1765 85.197 45.3914C85.1091 45.5574 85.0163 45.6892 84.9187 45.7869C84.8308 45.8748 84.7136 45.9187 84.5671 45.9187C84.4011 45.9187 84.2692 45.8699 84.1716 45.7722C84.0739 45.6648 84.0251 45.5427 84.0251 45.406C84.0251 45.3572 84.03 45.3181 84.0397 45.2888C84.0495 45.2498 84.0739 45.1912 84.113 45.113C84.3669 44.6248 84.5524 44.2 84.6696 43.8386C84.7966 43.4675 84.8991 43.0818 84.9772 42.6814C84.9089 42.4568 84.8601 42.2664 84.8308 42.1101C84.8015 41.9539 84.7868 41.7927 84.7868 41.6267C84.7868 41.3044 84.8552 41.0457 84.9919 40.8503C85.1286 40.6453 85.319 40.5427 85.5632 40.5427C85.7878 40.5427 85.9636 40.6404 86.0905 40.8357C86.2272 41.031 86.2956 41.2703 86.2956 41.5535C86.2956 41.7097 86.281 41.866 86.2517 42.0222C86.2224 42.1785 86.1833 42.3738 86.1345 42.6082C86.3591 43.1648 86.5837 43.658 86.8083 44.0876C87.0329 44.5173 87.2331 44.9128 87.4089 45.2742C87.5847 45.6257 87.7263 45.9578 87.8337 46.2703C87.9509 46.5828 88.0095 46.8953 88.0095 47.2078C88.0095 47.6179 87.9265 48.0085 87.7604 48.3796C87.5944 48.7507 87.321 49.0632 86.9401 49.3171C86.989 49.3269 87.0378 49.3318 87.0866 49.3318C87.1354 49.3318 87.1843 49.3318 87.2331 49.3318C87.7897 49.3318 88.3024 49.2048 88.7712 48.9509C89.2399 48.697 89.6599 48.3699 90.031 47.9695C90.4118 47.5593 90.7487 47.1101 91.0417 46.6218C91.3347 46.1238 91.5886 45.6306 91.8034 45.1423C91.9011 44.9177 92.0378 44.8054 92.2136 44.8054C92.3796 44.8054 92.5065 44.864 92.5944 44.9812C92.6921 45.0984 92.7409 45.2253 92.7409 45.3621C92.7409 45.4402 92.7263 45.5134 92.697 45.5818C92.5896 45.8455 92.4479 46.1482 92.2722 46.49C92.1062 46.822 91.9011 47.1687 91.6569 47.53C91.4226 47.8816 91.1491 48.2283 90.8366 48.5701C90.5241 48.9119 90.1726 49.2195 89.7819 49.4929C89.4011 49.7566 88.9812 49.9666 88.5222 50.1228C88.0632 50.2888 87.5603 50.3718 87.0134 50.3718C86.3591 50.3718 85.7487 50.2546 85.1823 50.0203C84.6257 49.7957 84.1716 49.4197 83.82 48.8923C83.7614 48.8044 83.7321 48.7117 83.7321 48.614C83.7321 48.4675 83.7858 48.3406 83.8933 48.2332C84.0104 48.116 84.1423 48.0574 84.2888 48.0574C84.445 48.0574 84.5769 48.1111 84.6843 48.2185C84.694 48.238 84.7282 48.2722 84.7868 48.321C84.8454 48.3601 84.9138 48.4089 84.9919 48.4675C85.0798 48.5164 85.1774 48.5603 85.2849 48.5994C85.4021 48.6384 85.5192 48.658 85.6364 48.658C85.8708 48.658 86.0661 48.6091 86.2224 48.5115C86.3884 48.4138 86.5202 48.2966 86.6179 48.1599C86.7155 48.0134 86.7839 47.8621 86.8229 47.7058C86.8718 47.5398 86.8962 47.3982 86.8962 47.281C86.8962 47.0369 86.8571 46.7927 86.779 46.5486C86.7009 46.3044 86.5983 46.0603 86.4714 45.8162C86.3542 45.572 86.2224 45.323 86.0759 45.0691C85.9392 44.8054 85.8122 44.532 85.695 44.2488ZM103.701 35.0056C103.701 35.1619 103.648 35.2888 103.54 35.3865C103.433 35.4744 103.301 35.5183 103.145 35.5183H95.7181V35.6794C95.7181 36.2751 95.6741 36.9099 95.5862 37.5837C95.4983 38.2576 95.3763 38.9314 95.22 39.6052C95.0735 40.2693 94.9026 40.9187 94.7073 41.5535C94.5218 42.1882 94.3265 42.7742 94.1214 43.3113C93.9261 43.8484 93.7308 44.3171 93.5354 44.7175C93.3401 45.1082 93.1644 45.4011 93.0081 45.5964C93.1351 46.0457 93.2864 46.4656 93.4622 46.8562C93.638 47.2371 93.8333 47.574 94.0481 47.8669C94.2728 48.1501 94.512 48.3748 94.7659 48.5408C95.0198 48.7068 95.2933 48.7898 95.5862 48.7898C95.928 48.7898 96.2649 48.6482 96.597 48.365C96.9388 48.072 97.2513 47.7302 97.5345 47.3396C97.8274 46.9392 98.0813 46.5388 98.2962 46.1384C98.5208 45.7283 98.6819 45.4011 98.7796 45.157C98.8772 44.9226 99.0481 44.8054 99.2923 44.8054C99.4583 44.8054 99.5901 44.864 99.6878 44.9812C99.7952 45.0984 99.8489 45.2253 99.8489 45.3621C99.8489 45.4304 99.8343 45.4988 99.805 45.5671C99.7757 45.6355 99.7024 45.7917 99.5853 46.0359C99.4778 46.28 99.3313 46.5632 99.1458 46.8855C98.97 47.2078 98.7601 47.5496 98.5159 47.9109C98.2815 48.2625 98.013 48.5847 97.7103 48.8777C97.4173 49.1707 97.0999 49.4148 96.7581 49.6101C96.4163 49.8054 96.055 49.9031 95.6741 49.9031C95.0003 49.9031 94.3948 49.6833 93.8577 49.2439C93.3206 48.8044 92.8616 48.1892 92.4808 47.3982C92.1097 46.6072 91.8265 45.6697 91.6312 44.5857C91.4358 43.5017 91.3382 42.3152 91.3382 41.0261C91.3382 40.7039 91.3431 40.3279 91.3528 39.8982C91.3626 39.4587 91.3821 38.9998 91.4114 38.5212C91.4407 38.033 91.4847 37.5349 91.5433 37.0271C91.6019 36.5095 91.68 36.0066 91.7776 35.5183H86.5188C86.3626 35.5183 86.2308 35.4744 86.1233 35.3865C86.0159 35.2888 85.9622 35.1619 85.9622 35.0056C85.9622 34.8494 86.0159 34.7273 86.1233 34.6394C86.2308 34.5417 86.3626 34.4929 86.5188 34.4929H92.0267C92.1243 34.1414 92.2366 33.8191 92.3636 33.5261C92.5003 33.2332 92.6517 32.9792 92.8177 32.7644C92.9935 32.5496 93.1839 32.3835 93.389 32.2664C93.6038 32.1394 93.8382 32.0759 94.0921 32.0759C94.3362 32.0759 94.5462 32.1394 94.722 32.2664C94.9075 32.3835 95.0638 32.5496 95.1907 32.7644C95.3177 32.9792 95.4153 33.2332 95.4837 33.5261C95.5618 33.8191 95.6204 34.1414 95.6595 34.4929H103.145C103.301 34.4929 103.433 34.5417 103.54 34.6394C103.648 34.7273 103.701 34.8494 103.701 35.0056ZM92.6712 44.1316C92.9642 43.4871 93.2278 42.7937 93.4622 42.0515C93.7063 41.2996 93.9114 40.5427 94.0774 39.781C94.2532 39.0193 94.3851 38.2722 94.4729 37.5398C94.5706 36.8074 94.6194 36.1335 94.6194 35.5183H92.8909C92.7542 36.1238 92.6419 36.8757 92.554 37.7742C92.4759 38.6628 92.4368 39.7468 92.4368 41.0261C92.4368 41.739 92.4563 42.3396 92.4954 42.8279C92.5345 43.3064 92.5931 43.741 92.6712 44.1316ZM94.0335 33.1746C93.9456 33.1746 93.8187 33.2722 93.6526 33.4675C93.4866 33.6531 93.3206 33.9949 93.1546 34.4929H94.5608C94.512 34.0828 94.4388 33.7605 94.3411 33.5261C94.2532 33.2917 94.1507 33.1746 94.0335 33.1746ZM92.9056 45.1863V45.2009V45.1863Z" fill="#E0E0E0"/>
</svg>
