<svg width="27" height="30" viewBox="0 0 27 30" fill="current" stroke="current" xmlns="http://www.w3.org/2000/svg">
<path fill-rule="evenodd" clip-rule="evenodd" d="M3.42911 3.42906C5.62473 1.23347 8.6026 0 11.7076 0C14.8127 0 17.7906 1.23347 19.9862 3.42906C22.1818 5.62465 23.4153 8.60251 23.4153 11.7076C23.4153 14.7711 22.2145 17.7109 20.0736 19.8977C20.178 19.9972 20.281 20.1054 20.3816 20.222L25.6698 26.3525C26.5813 27.4093 26.9469 28.755 26.4862 29.3582C26.0256 29.9615 24.9132 29.5939 24.0016 28.5371L18.7135 22.4066C18.469 22.1232 18.2639 21.819 18.1033 21.5139C16.2153 22.7453 13.996 23.4152 11.7076 23.4152C8.60257 23.4152 5.62469 22.1817 3.42908 19.9861C1.23349 17.7905 0 14.8126 0 11.7076C3.05176e-05 8.60251 1.23352 5.62465 3.42911 3.42906ZM15.4874 2.77126C14.289 2.28516 13.0047 2.03497 11.7076 2.03499C9.08817 2.035 6.57596 3.05408 4.72372 4.86804C2.87146 6.68199 1.83087 9.14224 1.83087 11.7076C1.83087 14.2729 2.87146 16.7331 4.72372 18.5471C6.57596 20.361 9.08817 21.3801 11.7076 21.3801C13.0047 21.3801 14.289 21.1299 15.4874 20.6439C16.6857 20.1578 17.7745 19.4453 18.6917 18.5471C19.6088 17.6489 20.3363 16.5826 20.8327 15.4091C21.329 14.2356 21.5845 12.9778 21.5845 11.7076C21.5845 10.4373 21.329 9.17955 20.8327 8.00601C20.3363 6.83247 19.6088 5.76619 18.6917 4.868C17.7745 3.96982 16.6857 3.25734 15.4874 2.77126Z"/>
</svg>
